# xmcd
#
# Track frame offsets: 
#        150
#        16451
#        32391
#        53398
#        64054
#        82014
#        94371
#        111593
#        132717
#        146683
#        166777
#        185235
#
# Disc length: 2589 seconds
#
# Revision: 0
# Processed by: cddbd v1.5.1PL2 Copyright (c) Steve Scherf et al.
# Submitted via: ExactAudioCopy v0.95a5
#
DISCID=aa0a1b0c
DTITLE=LeAnn Rimes - You Light Up My Life: Insprirational Songs
DYEAR=1997
DGENRE=Country
TTITLE0=You Light Up My Life
TTITLE1=The Rose
TTITLE2=Bridge Over Troubled Water
TTITLE3=I Believe
TTITLE4=Ten Thousand Angels Cried
TTITLE5=Clinging To A Saving Hand
TTITLE6=On The Side Of Angels
TTITLE7=I Know Who Holds Tomorrow
TTITLE8=God Bless America
TTITLE9=How Do I Live (Extended Mix)
TTITLE10=Amazing Grace
TTITLE11=National Anthem
EXTD=
EXTT0=
EXTT1=
EXTT2=
EXTT3=
EXTT4=
EXTT5=
EXTT6=
EXTT7=
EXTT8=
EXTT9=
EXTT10=
EXTT11=
PLAYORDER=
